<?xml version="1.0" encoding="UTF-8" standalone="no"?>
<!-- Created with Inkscape (http://www.inkscape.org/) -->

<svg
   width="156mm"
   height="30mm"
   viewBox="0 0 156 30"
   version="1.1"
   id="svg5"
   inkscape:version="1.2.2 (732a01da63, 2022-12-09)"
   sodipodi:docname="logo.svg"
   xmlns:inkscape="http://www.inkscape.org/namespaces/inkscape"
   xmlns:sodipodi="http://sodipodi.sourceforge.net/DTD/sodipodi-0.dtd"
   xmlns="http://www.w3.org/2000/svg"
   xmlns:svg="http://www.w3.org/2000/svg">
  <sodipodi:namedview
     id="namedview7"
     pagecolor="#ffffff"
     bordercolor="#000000"
     borderopacity="0.25"
     inkscape:showpageshadow="2"
     inkscape:pageopacity="0.0"
     inkscape:pagecheckerboard="0"
     inkscape:deskcolor="#d1d1d1"
     inkscape:document-units="mm"
     showgrid="false"
     inkscape:zoom="0.80444024"
     inkscape:cx="397.17059"
     inkscape:cy="263.53729"
     inkscape:window-width="1842"
     inkscape:window-height="1057"
     inkscape:window-x="70"
     inkscape:window-y="-8"
     inkscape:window-maximized="1"
     inkscape:current-layer="layer1"
     showguides="false" />
  <defs
     id="defs2" />
  <g
     inkscape:label="Layer 1"
     inkscape:groupmode="layer"
     id="layer1">
    <g
       id="path3966"
       style="font-weight:bold;font-size:29.1042px;font-family:'28 Days Later';-inkscape-font-specification:'28 Days Later Bold';fill:#ffffff;fill-rule:evenodd;stroke:#000000;stroke-width:0.6;stroke-linecap:square;stroke-linejoin:round;paint-order:markers fill stroke">
      <path
         style="color:#000000;-inkscape-font-specification:'Arial Bold';fill:#000000;fill-rule:nonzero;stroke:none;stroke-linecap:butt;stroke-linejoin:miter;-inkscape-stroke:none"
         d="M 1.8021488,23.378532 6.9607546,1.8346026 h 2.9985285 l -5.21545,21.5439294 z"
         id="path3991" />
      <path
         style="color:#000000;-inkscape-font-specification:'Arial Bold';fill:#000000;fill-rule:nonzero;stroke:none;stroke-linecap:butt;stroke-linejoin:miter;-inkscape-stroke:none"
         d="M 6.9609375,1.5351562 A 0.30003001,0.30003001 0 0 0 6.6699219,1.765625 L 1.5097656,23.308594 a 0.30003001,0.30003001 0 0 0 0.2929688,0.36914 H 4.7441406 A 0.30003001,0.30003001 0 0 0 5.0351562,23.449219 L 10.25,1.9042969 A 0.30003001,0.30003001 0 0 0 9.9589844,1.5351562 Z M 7.1972656,2.1347656 H 9.578125 L 4.5078125,23.078125 H 2.1816406 Z"
         id="path3993" />
    </g>
    <g
       id="path3968"
       style="font-weight:bold;font-size:29.1042px;font-family:'28 Days Later';-inkscape-font-specification:'28 Days Later Bold';fill:#ffffff;fill-rule:evenodd;stroke:#000000;stroke-width:0.6;stroke-linecap:square;stroke-linejoin:round;paint-order:markers fill stroke">
      <path
         style="color:#000000;-inkscape-font-specification:'Arial Bold';fill:#000000;fill-rule:nonzero;stroke:none;stroke-linecap:butt;stroke-linejoin:miter;-inkscape-stroke:none"
         d="m 10.61299,18.717313 4.007512,-0.611075 q 0.255799,1.165305 1.037406,1.776379 0.781607,0.596864 2.188499,0.596864 1.549003,0 2.33061,-0.568441 0.525808,-0.397909 0.525808,-1.065828 0,-0.454753 -0.28422,-0.753185 -0.298432,-0.284221 -1.335838,-0.525808 -4.831752,-1.065828 -6.124956,-1.946912 -1.79059,-1.222149 -1.79059,-3.396438 0,-1.961122 1.549002,-3.2969597 1.549003,-1.3358374 4.80333,-1.3358374 3.098006,0 4.604376,1.0089835 1.50637,1.0089835 2.074811,2.9843176 l -3.765924,0.696341 q -0.241588,-0.881085 -0.923718,-1.350049 -0.667918,-0.468964 -1.918489,-0.468964 -1.577425,0 -2.259555,0.440542 -0.454753,0.312643 -0.454753,0.810029 0,0.426331 0.397909,0.724763 0.540019,0.397909 3.723291,1.122672 3.197483,0.724763 4.462265,1.776379 1.250571,1.065828 1.250571,2.970107 0,2.074811 -1.733746,3.566969 -1.733746,1.492159 -5.130184,1.492159 -3.083794,0 -4.888596,-1.250571 -1.79059,-1.250571 -2.344821,-3.396437 z"
         id="path3997" />
      <path
         style="color:#000000;-inkscape-font-specification:'Arial Bold';fill:#000000;fill-rule:nonzero;stroke:none;stroke-linecap:butt;stroke-linejoin:miter;-inkscape-stroke:none"
         d="m 17.519531,7.2910156 c -2.210597,0 -3.888646,0.4497879 -5,1.4082032 -1.087651,0.9379755 -1.652344,2.1370382 -1.652343,3.5234372 0,1.531878 0.659729,2.783067 1.921875,3.644532 0.959021,0.653399 2.995514,1.279355 6.226562,1.992187 0.668268,0.155624 1.080231,0.347664 1.1875,0.447266 0.133151,0.142368 0.199219,0.3017 0.199219,0.539062 0,0.364817 -0.121084,0.606504 -0.404297,0.822266 -0.44491,0.323002 -1.157228,0.511718 -2.152344,0.511718 -0.895503,0 -1.553793,-0.189941 -2.005859,-0.535156 -0.459586,-0.360109 -0.766843,-0.879465 -0.925781,-1.603515 a 0.30003001,0.30003001 0 0 0 -0.337891,-0.230469 l -4.007813,0.609375 a 0.30003001,0.30003001 0 0 0 -0.246093,0.373047 c 0.38552,1.492653 1.215039,2.69489 2.46289,3.566406 a 0.30003001,0.30003001 0 0 0 0.002,0 c 1.268949,0.879271 2.962181,1.304688 5.058594,1.304687 2.308223,0 4.09693,-0.506498 5.326172,-1.564453 1.207937,-1.039617 1.837891,-2.328154 1.837891,-3.794922 0,-1.335189 -0.454625,-2.4295 -1.355469,-3.197265 a 0.30003001,0.30003001 0 0 0 -0.002,-0.0039 C 22.739645,14.344643 21.218297,13.75383 19.064453,13.265625 18.007367,13.024949 17.171966,12.812676 16.5625,12.628906 c -0.608535,-0.183489 -1.004968,-0.358462 -1.107422,-0.433593 -0.210415,-0.157812 -0.279297,-0.293488 -0.279297,-0.484375 0,-0.239176 0.08455,-0.394959 0.324219,-0.560547 0.367119,-0.235378 1.069094,-0.390625 2.089844,-0.390625 0.796213,0 1.372879,0.153971 1.746093,0.416015 a 0.30003001,0.30003001 0 0 0 0.0039,0.002 c 0.396101,0.27232 0.657127,0.650604 0.802734,1.181641 a 0.30003001,0.30003001 0 0 0 0.345703,0.214844 l 3.765625,-0.695313 A 0.30003001,0.30003001 0 0 0 24.486328,11.5 C 24.091646,10.128477 23.355973,9.0629297 22.291016,8.3496094 21.207764,7.6240354 19.617435,7.2910156 17.519531,7.2910156 Z m 0,0.5996094 c 2.032767,0 3.51226,0.3372952 4.4375,0.9570313 0.855469,0.5730023 1.433133,1.4241957 1.810547,2.5117187 l -3.214844,0.59375 c -0.195239,-0.503363 -0.442595,-0.974253 -0.871093,-1.269531 -0.517343,-0.363241 -1.220584,-0.523438 -2.091797,-0.523438 -1.079544,0 -1.87859,0.13741 -2.421875,0.488282 a 0.30003001,0.30003001 0 0 0 -0.0078,0.0059 c -0.36437,0.250505 -0.583984,0.633622 -0.583984,1.056641 0,0.377553 0.197449,0.724746 0.517578,0.964843 a 0.30003001,0.30003001 0 0 0 0.002,0.002 c 0.258308,0.190332 0.661339,0.334938 1.292969,0.525391 0.63163,0.190453 1.477876,0.405939 2.542969,0.648438 2.109462,0.478144 3.562262,1.071563 4.335937,1.714843 0.764293,0.653054 1.142578,1.536223 1.142578,2.738281 0,1.299645 -0.525184,2.389919 -1.628906,3.339844 -1.082417,0.931589 -2.71519,1.419922 -4.935547,1.419922 -2.015308,0 -3.579345,-0.40911 -4.716797,-1.197266 -1.042112,-0.727824 -1.701193,-1.708491 -2.083984,-2.912109 l 3.435547,-0.525391 c 0.203928,0.679767 0.488195,1.295423 0.992187,1.689454 a 0.30003001,0.30003001 0 0 0 0.0039,0.002 c 0.590075,0.450603 1.388789,0.658203 2.36914,0.658203 1.069365,0 1.910502,-0.190593 2.507813,-0.625 a 0.30003001,0.30003001 0 0 0 0.0039,-0.0039 C 20.772414,19.836519 21.002,19.369846 21.002,18.845844 c 0,-0.365668 -0.123272,-0.706876 -0.365234,-0.960937 A 0.30003001,0.30003001 0 0 0 20.625,17.875 c -0.293928,-0.279931 -0.763884,-0.436052 -1.474609,-0.601563 a 0.30003001,0.30003001 0 0 0 -0.0039,0 c -3.209681,-0.708018 -5.254555,-1.381151 -6.019531,-1.902343 -1.125306,-0.768066 -1.660156,-1.781266 -1.660156,-3.148438 0,-1.228428 0.46763,-2.2271726 1.445312,-3.0703122 C 13.866091,8.3296443 15.39103,7.890625 17.519531,7.890625 Z"
         id="path3999" />
    </g>
    <g
       id="path3970"
       style="font-weight:bold;font-size:29.1042px;font-family:'28 Days Later';-inkscape-font-specification:'28 Days Later Bold';fill:#ffffff;fill-rule:evenodd;stroke:#000000;stroke-width:0.6;stroke-linecap:square;stroke-linejoin:round;paint-order:markers fill stroke">
      <path
         style="color:#000000;-inkscape-font-specification:'Arial Bold';fill:#000000;fill-rule:nonzero;stroke:none;stroke-linecap:butt;stroke-linejoin:miter;-inkscape-stroke:none"
         d="M 28.206252,23.023256 V 2.1898785 h 3.993301 V 23.023256 Z"
         id="path4003" />
      <path
         style="color:#000000;-inkscape-font-specification:'Arial Bold';fill:#000000;fill-rule:nonzero;stroke:none;stroke-linecap:butt;stroke-linejoin:miter;-inkscape-stroke:none"
         d="M 28.207031,1.890625 A 0.30003001,0.30003001 0 0 0 27.90625,2.1894531 V 23.023437 a 0.30003001,0.30003001 0 0 0 0.300781,0.300782 h 3.992188 A 0.30003001,0.30003001 0 0 0 32.5,23.023437 V 2.1894531 A 0.30003001,0.30003001 0 0 0 32.199219,1.890625 Z m 0.298828,0.5996094 h 3.394532 V 22.722656 h -3.394532 z"
         id="path4005" />
    </g>
    <g
       id="path3972"
       style="font-weight:bold;font-size:29.1042px;font-family:'28 Days Later';-inkscape-font-specification:'28 Days Later Bold';fill:#ffffff;fill-rule:evenodd;stroke:#000000;stroke-width:0.6;stroke-linecap:square;stroke-linejoin:round;paint-order:markers fill stroke">
      <path
         style="color:#000000;-inkscape-font-specification:'Arial Bold';fill:#000000;fill-rule:nonzero;stroke:none;stroke-linecap:butt;stroke-linejoin:miter;-inkscape-stroke:none"
         d="m 39.27665,12.535512 -3.623814,-0.653707 q 0.611074,-2.1884998 2.103233,-3.2401165 1.492159,-1.0516166 4.433843,-1.0516166 2.671675,0 3.97909,0.6394966 1.307415,0.6252856 1.833223,1.605847 0.54002,0.9663505 0.54002,3.5669695 l -0.04263,4.66122 q 0,1.989545 0.184743,2.941684 0.198955,0.937929 0.724763,2.017967 H 45.45845 q -0.156321,-0.397909 -0.383698,-1.179516 -0.09948,-0.355276 -0.14211,-0.468964 -1.023195,0.994773 -2.1885,1.492159 -1.165305,0.497386 -2.486931,0.497386 -2.33061,0 -3.680658,-1.264782 -1.335837,-1.264782 -1.335837,-3.197483 0,-1.278993 0.611074,-2.273766 0.611075,-1.008983 1.705324,-1.534791 1.108461,-0.54002 3.183272,-0.937929 2.799574,-0.525808 3.879613,-0.980561 V 12.7771 q 0,-1.151094 -0.568442,-1.634269 -0.568441,-0.497386 -2.145866,-0.497386 -1.065827,0 -1.662691,0.426331 -0.596863,0.41212 -0.96635,1.463736 z m 5.343349,3.240116 q -0.767396,0.255799 -2.430087,0.611075 -1.662691,0.355276 -2.174289,0.696341 -0.781606,0.55423 -0.781606,1.406892 0,0.838451 0.625285,1.449526 0.625286,0.611074 1.591636,0.611074 1.080039,0 2.0606,-0.710552 0.724763,-0.540019 0.95214,-1.321626 0.156321,-0.511597 0.156321,-1.946912 z"
         id="path4009" />
      <path
         style="color:#000000;-inkscape-font-specification:'Arial Bold';fill:#000000;fill-rule:nonzero;stroke:none;stroke-linecap:butt;stroke-linejoin:miter;-inkscape-stroke:none"
         d="m 42.189453,7.2910156 c -1.996869,0 -3.534817,0.3509147 -4.605469,1.1054688 -1.059109,0.7464199 -1.799658,1.8963666 -2.220703,3.4042966 a 0.30003001,0.30003001 0 0 0 0.236328,0.376953 l 3.623047,0.652344 a 0.30003001,0.30003001 0 0 0 0.337891,-0.195312 c 0.23364,-0.664977 0.529968,-1.093005 0.853515,-1.316407 a 0.30003001,0.30003001 0 0 0 0.0039,-0.002 c 0.329181,-0.235129 0.81773,-0.371093 1.488281,-0.371093 1.020084,0 1.671801,0.182796 1.947266,0.423828 a 0.30003001,0.30003001 0 0 0 0.0039,0.002 c 0.289386,0.245978 0.46289,0.688237 0.46289,1.40625 v 0.167969 c -0.696595,0.273836 -1.866321,0.583871 -3.634765,0.916015 a 0.30003001,0.30003001 0 0 0 -0.002,0 c -1.398155,0.26814 -2.478667,0.583306 -3.257813,0.962891 -0.776143,0.373529 -1.394041,0.92847 -1.830078,1.648437 -0.43674,0.711667 -0.654297,1.529923 -0.654297,2.429688 0,1.357583 0.483732,2.520376 1.429688,3.416015 0.962888,0.902075 2.278712,1.345703 3.886718,1.345703 0.918718,0 1.788986,-0.173819 2.603516,-0.521484 0.678441,-0.289578 1.297454,-0.769827 1.900391,-1.294922 0.01025,0.03569 0.01215,0.03586 0.02344,0.07617 a 0.30003001,0.30003001 0 0 0 0.002,0.0039 c 0.152921,0.525666 0.282021,0.92366 0.392578,1.205078 a 0.30003001,0.30003001 0 0 0 0.279297,0.191407 h 3.949219 A 0.30003001,0.30003001 0 0 0 49.679677,22.89257 C 49.337591,22.189894 49.104871,21.539031 48.978516,20.943359 48.863171,20.347156 48.798914,19.38035 48.798828,18.066406 v -0.002 l 0.04297,-4.660156 a 0.30003001,0.30003001 0 0 0 0,-0.002 c 0,-1.75451 -0.162207,-2.968618 -0.578125,-3.7128909 C 47.876785,8.9707695 47.209946,8.3962938 46.300781,7.9609375 45.356719,7.4991678 43.994504,7.2910156 42.189453,7.2910156 Z m 0,0.5996094 c 1.757179,0 3.0485,0.2184834 3.847656,0.609375 a 0.30003001,0.30003001 0 0 0 0.002,0 c 0.830667,0.3972752 1.385068,0.8907134 1.699219,1.4765625 a 0.30003001,0.30003001 0 0 0 0.002,0.00586 c 0.304108,0.5441935 0.501953,1.7069435 0.501953,3.4199225 l -0.04297,4.658203 a 0.30003001,0.30003001 0 0 0 0,0.0039 c 0,1.335648 0.0608,2.324931 0.191406,2.998047 a 0.30003001,0.30003001 0 0 0 0,0.0059 c 0.110182,0.519431 0.344701,1.083344 0.59375,1.654297 h -3.308594 c -0.08917,-0.245092 -0.187758,-0.530427 -0.3125,-0.958984 v -0.0039 c -0.06628,-0.236599 -0.113107,-0.390805 -0.15039,-0.490235 a 0.30003001,0.30003001 0 0 0 -0.490235,-0.109375 c -0.659234,0.640923 -1.35609,1.115953 -2.095703,1.431641 -0.739208,0.315515 -1.525692,0.472656 -2.369141,0.472656 -1.498743,0 -2.637549,-0.400047 -3.474609,-1.183594 -0.835158,-0.790735 -1.242187,-1.759167 -1.242187,-2.978515 0,-0.804884 0.189037,-1.502866 0.566406,-2.117188 a 0.30003001,0.30003001 0 0 0 0,-0.002 c 0.378241,-0.624536 0.89845,-1.092386 1.580078,-1.419922 a 0.30003001,0.30003001 0 0 0 0.002,0 c 0.698396,-0.340244 1.738382,-0.6498 3.105469,-0.912109 1.874923,-0.352143 3.174052,-0.676904 3.941406,-1 a 0.30003001,0.30003001 0 0 0 0.183594,-0.275391 v -0.398437 c 0,-0.81499 -0.205513,-1.460902 -0.671875,-1.859375 -0.482541,-0.421389 -1.259502,-0.572266 -2.341797,-0.572266 -0.749804,0 -1.369461,0.149808 -1.835938,0.482422 -0.403835,0.280017 -0.67997,0.794275 -0.923828,1.378906 l -3.070312,-0.554687 c 0.402134,-1.227737 1.0024,-2.1657918 1.853515,-2.7656256 0.918893,-0.6476 2.334394,-0.9960938 4.259766,-0.9960938 z m 2.335938,7.599609 c -0.489461,0.163154 -1.295143,0.367769 -2.398438,0.603516 -1.121495,0.239636 -1.851474,0.456321 -2.277344,0.740234 a 0.30003001,0.30003001 0 0 0 -0.0078,0.0039 c -0.580285,0.411475 -0.908203,0.992236 -0.908203,1.652343 0,0.633543 0.250888,1.208743 0.716797,1.664063 0.472106,0.461376 1.093313,0.695312 1.800781,0.695312 0.785815,0 1.540244,-0.263168 2.236328,-0.767578 a 0.30003001,0.30003001 0 0 0 0.0039,-0.002 c 0.52548,-0.391534 0.887793,-0.891031 1.058594,-1.474609 v -0.002 c 0.126842,-0.416098 0.169922,-1.064407 0.169922,-2.03125 V 15.77529 a 0.30003001,0.30003001 0 0 0 -0.394531,-0.285157 z m -0.205079,0.669922 v 0.41211 c 0,0.945984 -0.06128,1.593293 -0.142578,1.859375 a 0.30003001,0.30003001 0 0 0 -0.002,0.002 c -0.13288,0.456775 -0.404128,0.838455 -0.84375,1.166015 C 42.721996,20.040633 42.103987,20.25 41.451172,20.25 c -0.580998,0 -1.021205,-0.172002 -1.382813,-0.525391 -0.367804,-0.359445 -0.535156,-0.749984 -0.535156,-1.234375 0,-0.475823 0.194431,-0.83319 0.654297,-1.160156 0.258155,-0.170789 0.972145,-0.416991 2.064453,-0.650391 0.935187,-0.199826 1.544101,-0.36294 2.068359,-0.519531 z"
         id="path4011" />
    </g>
    <g
       id="path3974"
       style="font-weight:bold;font-size:29.1042px;font-family:'28 Days Later';-inkscape-font-specification:'28 Days Later Bold';fill:#ffffff;fill-rule:evenodd;stroke:#000000;stroke-width:0.6;stroke-linecap:square;stroke-linejoin:round;paint-order:markers fill stroke">
      <path
         style="color:#000000;-inkscape-font-specification:'Arial Bold';fill:#000000;fill-rule:nonzero;stroke:none;stroke-linecap:butt;stroke-linejoin:miter;-inkscape-stroke:none"
         d="m 51.071807,18.717313 4.007512,-0.611075 q 0.255798,1.165305 1.037405,1.776379 0.781607,0.596864 2.1885,0.596864 1.549003,0 2.33061,-0.568441 0.525808,-0.397909 0.525808,-1.065828 0,-0.454753 -0.284221,-0.753185 -0.298432,-0.284221 -1.335837,-0.525808 -4.831752,-1.065828 -6.124956,-1.946912 -1.790591,-1.222149 -1.790591,-3.396438 0,-1.961122 1.549003,-3.2969597 1.549003,-1.3358374 4.80333,-1.3358374 3.098006,0 4.604375,1.0089835 1.50637,1.0089835 2.074812,2.9843176 l -3.765925,0.696341 q -0.241587,-0.881085 -0.923717,-1.350049 -0.667919,-0.468964 -1.91849,-0.468964 -1.577425,0 -2.259555,0.440542 -0.454753,0.312643 -0.454753,0.810029 0,0.426331 0.397909,0.724763 0.54002,0.397909 3.723292,1.122672 3.197483,0.724763 4.462265,1.776379 1.250571,1.065828 1.250571,2.970107 0,2.074811 -1.733747,3.566969 -1.733746,1.492159 -5.130183,1.492159 -3.083795,0 -4.888596,-1.250571 -1.790591,-1.250571 -2.344821,-3.396437 z"
         id="path4015" />
      <path
         style="color:#000000;-inkscape-font-specification:'Arial Bold';fill:#000000;fill-rule:nonzero;stroke:none;stroke-linecap:butt;stroke-linejoin:miter;-inkscape-stroke:none"
         d="m 57.978516,7.2910156 c -2.210598,0 -3.888646,0.4497879 -5,1.4082032 -1.087653,0.9379754 -1.652344,2.1370382 -1.652344,3.5234372 0,1.531878 0.659729,2.783067 1.921875,3.644532 0.958749,0.653213 2.99516,1.279608 6.224609,1.992187 0.668274,0.155625 1.082189,0.347664 1.189453,0.447266 0.133152,0.142368 0.199219,0.301701 0.199219,0.539062 0,0.364817 -0.121084,0.606504 -0.404297,0.822266 -0.44491,0.323002 -1.157228,0.511718 -2.152344,0.511718 -0.895503,0 -1.553793,-0.189941 -2.005859,-0.535156 -0.459586,-0.360109 -0.766844,-0.879465 -0.925781,-1.603515 a 0.30003001,0.30003001 0 0 0 -0.339844,-0.230469 l -4.005859,0.609375 a 0.30003001,0.30003001 0 0 0 -0.246094,0.373047 c 0.38552,1.492653 1.215038,2.69489 2.462891,3.566406 a 0.30003001,0.30003001 0 0 0 0.002,0 c 1.268948,0.879271 2.962179,1.304687 5.058593,1.304687 2.308223,0 4.09693,-0.506498 5.326172,-1.564453 1.207938,-1.039617 1.837891,-2.328154 1.837891,-3.794922 0,-1.335189 -0.454625,-2.4295 -1.355469,-3.197265 a 0.30003001,0.30003001 0 0 0 -0.002,-0.0039 c -0.912699,-0.758873 -2.434046,-1.349686 -4.587891,-1.837891 -1.057086,-0.240676 -1.89444,-0.452949 -2.503906,-0.636719 -0.608535,-0.183489 -1.004967,-0.358462 -1.107422,-0.433593 -0.210415,-0.157812 -0.277343,-0.293488 -0.277343,-0.484375 0,-0.23855 0.08404,-0.393489 0.322265,-0.558594 0.366786,-0.235802 1.069953,-0.392578 2.091797,-0.392578 0.796213,0 1.372879,0.153971 1.746094,0.416015 a 0.30003001,0.30003001 0 0 0 0.0039,0.002 c 0.396101,0.272319 0.657128,0.650604 0.802734,1.181641 a 0.30003001,0.30003001 0 0 0 0.34375,0.214844 l 3.767579,-0.695313 A 0.30003001,0.30003001 0 0 0 64.945312,11.5 C 64.550629,10.128477 63.814957,9.0629297 62.75,8.3496094 61.666749,7.6240354 60.07642,7.2910156 57.978516,7.2910156 Z m 0,0.5996094 c 2.032766,0 3.51226,0.3372953 4.4375,0.9570313 0.855468,0.5730023 1.433132,1.4241957 1.810546,2.5117187 l -3.214843,0.59375 c -0.195239,-0.503364 -0.442596,-0.974253 -0.871094,-1.269531 -0.517343,-0.363241 -1.220584,-0.523438 -2.091797,-0.523438 -1.079543,0 -1.87859,0.13741 -2.421875,0.488282 a 0.30003001,0.30003001 0 0 0 -0.0078,0.0059 c -0.364371,0.250505 -0.583985,0.633622 -0.583985,1.056641 0,0.377553 0.197449,0.724746 0.517578,0.964843 a 0.30003001,0.30003001 0 0 0 0.002,0.002 c 0.258308,0.190332 0.661339,0.334938 1.292969,0.525391 0.631631,0.190453 1.477876,0.405939 2.542969,0.648438 2.109462,0.478144 3.562262,1.071563 4.335937,1.714843 0.764293,0.653054 1.142579,1.536223 1.142579,2.738281 0,1.299645 -0.525183,2.389919 -1.628907,3.339844 -1.082417,0.931589 -2.71519,1.419922 -4.935547,1.419922 -2.015308,0 -3.579345,-0.40911 -4.716796,-1.197266 -1.042113,-0.727824 -1.703148,-1.708491 -2.085938,-2.912109 l 3.4375,-0.525391 c 0.203928,0.679767 0.488195,1.295423 0.992188,1.689454 a 0.30003001,0.30003001 0 0 0 0.0039,0.002 c 0.590076,0.450603 1.388789,0.658203 2.36914,0.658203 1.069365,0 1.910502,-0.190593 2.507813,-0.625 a 0.30003001,0.30003001 0 0 0 0.0039,-0.0039 c 0.414946,-0.314013 0.644532,-0.780686 0.644531,-1.304688 0,-0.365668 -0.125224,-0.706876 -0.367187,-0.960937 a 0.30003001,0.30003001 0 0 0 -0.0098,-0.0098 C 60.79007,17.595176 60.320112,17.439055 59.609388,17.273544 a 0.30003001,0.30003001 0 0 0 -0.0039,0 C 56.395806,16.565526 54.350932,15.892393 53.585956,15.371201 52.46065,14.603135 51.9258,13.589935 51.9258,12.222763 c 0,-1.228428 0.46763,-2.2271726 1.445313,-3.0703122 0.953981,-0.8226995 2.47892,-1.2617188 4.607422,-1.2617188 z"
         id="path4017" />
    </g>
    <g
       id="path3976"
       style="font-weight:bold;font-size:29.1042px;font-family:'28 Days Later';-inkscape-font-specification:'28 Days Later Bold';fill:#ffffff;fill-rule:evenodd;stroke:#000000;stroke-width:0.6;stroke-linecap:square;stroke-linejoin:round;paint-order:markers fill stroke">
      <path
         style="color:#000000;-inkscape-font-specification:'Arial Bold';fill:#000000;fill-rule:nonzero;stroke:none;stroke-linecap:butt;stroke-linejoin:miter;-inkscape-stroke:none"
         d="m 72.644156,2.1898785 v 7.659748 q 1.932701,-2.2595546 4.618587,-2.2595546 1.37847,0 2.486931,0.5115973 1.108461,0.5115973 1.662691,1.3074153 0.568441,0.7958175 0.767396,1.7621685 0.213165,0.96635 0.213165,2.998528 v 8.853475 h -3.993301 v -7.972391 q 0,-2.373242 -0.227376,-3.012739 -0.227377,-0.639497 -0.810029,-1.008984 -0.568442,-0.383697 -1.435315,-0.383697 -0.994772,0 -1.776379,0.483175 -0.781607,0.483175 -1.151094,1.463736 -0.355276,0.966351 -0.355276,2.87063 v 7.56027 H 68.650855 V 2.1898785 Z"
         id="path4021" />
      <path
         style="color:#000000;-inkscape-font-specification:'Arial Bold';fill:#000000;fill-rule:nonzero;stroke:none;stroke-linecap:butt;stroke-linejoin:miter;-inkscape-stroke:none"
         d="M 68.650391,1.890625 A 0.30003001,0.30003001 0 0 0 68.351562,2.1894531 V 23.023437 a 0.30003001,0.30003001 0 0 0 0.298829,0.300782 h 3.99414 a 0.30003001,0.30003001 0 0 0 0.298828,-0.300782 v -7.560546 c 0,-1.250862 0.123063,-2.183247 0.337891,-2.767578 0.227437,-0.602028 0.566254,-1.02551 1.027344,-1.310547 0.472651,-0.292185 1.004531,-0.439453 1.61914,-0.439453 0.533653,-1e-6 0.947231,0.115797 1.267578,0.332031 a 0.30003001,0.30003001 0 0 0 0.0059,0.0059 c 0.337233,0.213856 0.556903,0.488166 0.6875,0.855469 0.11234,0.315959 0.210937,1.33953 0.210937,2.912109 v 7.972656 a 0.30003001,0.30003001 0 0 0 0.300782,0.300782 h 3.992187 a 0.30003001,0.30003001 0 0 0 0.300781,-0.300782 v -8.853515 c 0,-1.363541 -0.06947,-2.371217 -0.220703,-3.058594 C 82.33222,10.429211 82.059517,9.8011642 81.658203,9.2382813 81.252343,8.655508 80.650439,8.1879731 79.875,7.8300781 79.093065,7.469185 78.219764,7.2910156 77.263672,7.2910156 c -1.651992,0 -3.082468,0.7282127 -4.320313,1.9433594 V 2.1894531 A 0.30003001,0.30003001 0 0 0 72.644531,1.890625 Z m 0.300781,0.5996094 h 3.392578 v 7.359375 a 0.30003001,0.30003001 0 0 0 0.529297,0.1953126 c 1.243846,-1.4542025 2.684163,-2.154297 4.390625,-2.154297 0.881866,0 1.663364,0.163139 2.359375,0.484375 0.702507,0.3242341 1.209856,0.7267618 1.542969,1.2050781 a 0.30003001,0.30003001 0 0 0 0.002,0.00391 c 0.3552,0.4972809 0.594213,1.0435449 0.71875,1.6484379 a 0.30003001,0.30003001 0 0 0 0,0.0039 c 0.132581,0.601035 0.207031,1.589299 0.207031,2.933594 v 8.552734 h -3.394531 v -7.671875 c 0,-1.59174 -0.05331,-2.576578 -0.244141,-3.113281 -0.171618,-0.482674 -0.489896,-0.877692 -0.925781,-1.15625 -4.97e-4,-3.35e-4 -0.0015,3.35e-4 -0.002,0 -0.437318,-0.294673 -0.978139,-0.435547 -1.59961,-0.435547 -0.711752,0 -1.366056,0.175296 -1.935547,0.527344 -0.580292,0.358726 -1.008234,0.909473 -1.273437,1.613281 a 0.30003001,0.30003001 0 0 0 0,0.002 c -0.258873,0.704135 -0.375,1.686435 -0.375,2.97461 v 7.259765 h -3.392578 z"
         id="path4023" />
    </g>
    <g
       id="path3978"
       style="font-weight:bold;font-size:29.1042px;font-family:'28 Days Later';-inkscape-font-specification:'28 Days Later Bold';fill:#ffffff;fill-rule:evenodd;stroke:#000000;stroke-width:0.6;stroke-linecap:square;stroke-linejoin:round;paint-order:markers fill stroke">
      <path
         style="color:#000000;-inkscape-font-specification:'Arial Bold';fill:#000000;fill-rule:nonzero;stroke:none;stroke-linecap:butt;stroke-linejoin:miter;-inkscape-stroke:none"
         d="m 85.988321,17.466741 v -3.9933 h 7.844491 v 3.9933 z"
         id="path4027" />
      <path
         style="color:#000000;-inkscape-font-specification:'Arial Bold';fill:#000000;fill-rule:nonzero;stroke:none;stroke-linecap:butt;stroke-linejoin:miter;-inkscape-stroke:none"
         d="M 85.988281,13.173828 A 0.30003001,0.30003001 0 0 0 85.6875,13.472656 v 3.994141 a 0.30003001,0.30003001 0 0 0 0.300781,0.300781 h 7.84375 a 0.30003001,0.30003001 0 0 0 0.300781,-0.300781 v -3.994141 a 0.30003001,0.30003001 0 0 0 -0.300781,-0.298828 z m 0.300781,0.59961 h 7.244141 v 3.392578 h -7.244141 z"
         id="path4029" />
    </g>
    <g
       id="path3980"
       style="font-weight:bold;font-size:29.1042px;font-family:'28 Days Later';-inkscape-font-specification:'28 Days Later Bold';fill:#ffffff;fill-rule:evenodd;stroke:#000000;stroke-width:0.6;stroke-linecap:square;stroke-linejoin:round;paint-order:markers fill stroke">
      <path
         style="color:#000000;-inkscape-font-specification:'Arial Bold';fill:#000000;fill-rule:nonzero;stroke:none;stroke-linecap:butt;stroke-linejoin:miter;-inkscape-stroke:none"
         d="m 96.021311,7.9311368 h 3.723291 v 2.2169212 q 0.724758,-1.1368825 1.961118,-1.8474343 1.23636,-0.7105518 2.74273,-0.7105518 2.62905,0 4.46227,2.0606002 1.83322,2.0605999 1.83322,5.7412579 0,3.780136 -1.84743,5.883369 -1.84744,2.089022 -4.47648,2.089022 -1.25057,0 -2.27376,-0.497386 -1.00899,-0.497386 -2.13166,-1.705324 v 7.602904 h -3.993299 z m 3.950667,7.2902612 q 0,2.543775 1.008982,3.765924 1.00899,1.207938 2.45851,1.207938 1.39268,0 2.3164,-1.10846 0.92372,-1.122672 0.92372,-3.666448 0,-2.373243 -0.95214,-3.524336 -0.95214,-1.151094 -2.35903,-1.151094 -1.46374,0 -2.43009,1.136883 -0.966352,1.122671 -0.966352,3.339593 z"
         id="path4033" />
      <path
         style="color:#000000;-inkscape-font-specification:'Arial Bold';fill:#000000;fill-rule:nonzero;stroke:none;stroke-linecap:butt;stroke-linejoin:miter;-inkscape-stroke:none"
         d="m 104.44922,7.2910156 c -1.05142,0 -2.0227,0.2500712 -2.89258,0.75 -0.63123,0.3627757 -1.06751,0.8970845 -1.51172,1.4238282 V 7.9316406 A 0.30003001,0.30003001 0 0 0 99.744141,7.6308594 H 96.021484 A 0.30003001,0.30003001 0 0 0 95.720703,7.9316406 V 28.763672 a 0.30003001,0.30003001 0 0 0 0.300781,0.300781 h 3.992186 a 0.30003001,0.30003001 0 0 0 0.30078,-0.300781 v -6.984375 c 0.57565,0.547502 1.1481,1.085746 1.69922,1.357422 a 0.30003001,0.30003001 0 0 0 0.002,0 c 0.72534,0.352601 1.53081,0.527343 2.40429,0.527343 1.83215,0 3.42277,-0.743872 4.70117,-2.189453 a 0.30003001,0.30003001 0 0 0 0,-0.002 c 1.29043,-1.469107 1.92188,-3.511118 1.92188,-6.080078 0,-2.503576 -0.6271,-4.501402 -1.9082,-5.9414061 -1.26949,-1.4269412 -2.85447,-2.1601563 -4.68555,-2.1601563 z m 0,0.5996094 c 1.67432,0 3.06347,0.6384613 4.23828,1.9589844 1.16319,1.3074596 1.75586,3.1390056 1.75586,5.5429686 0,2.470449 -0.5994,4.34847 -1.77148,5.683594 -1.18485,1.339779 -2.57873,1.988281 -4.25196,1.988281 -0.79325,0 -1.50215,-0.156755 -2.14062,-0.466797 h -0.002 c -0.62555,-0.308611 -1.31148,-0.853579 -2.04296,-1.640625 a 0.30003001,0.30003001 0 0 0 -0.519536,0.205078 v 7.302735 H 96.322266 V 8.2304688 h 3.123046 v 1.9179692 a 0.30003001,0.30003001 0 0 0 0.552735,0.160156 c 0.456833,-0.7166073 1.071153,-1.2961702 1.857423,-1.7480471 0.7786,-0.4474727 1.63667,-0.6699219 2.59375,-0.6699219 z m -1.08008,2.554688 c -1.05349,-1e-6 -1.96751,0.427314 -2.66016,1.242187 -0.70679,0.822378 -1.037105,2.012847 -1.037105,3.533203 0,1.735513 0.340415,3.063464 1.078125,3.957031 a 0.30003001,0.30003001 0 0 0 0,0.002 c 0.71797,0.859539 1.63977,1.316407 2.68945,1.316407 1.00805,0 1.8836,-0.420862 2.54688,-1.216797 a 0.30003001,0.30003001 0 0 0 0.002,-0.002 c 0.68645,-0.834294 0.99219,-2.12526 0.99219,-3.857422 0,-1.62228 -0.32219,-2.869425 -1.02149,-3.714844 -0.68101,-0.823314 -1.5701,-1.259766 -2.58984,-1.259765 z m 0,0.599609 c 0.85611,0 1.53845,0.331493 2.12695,1.042969 0.57022,0.689369 0.88282,1.78999 0.88282,3.332031 0,1.659536 -0.31029,2.813961 -0.85547,3.476562 -0.56793,0.680405 -1.23609,0.998047 -2.08399,0.998047 -0.88301,0 -1.60117,-0.348565 -2.22851,-1.099609 -0.60666,-0.736091 -0.93946,-1.919383 -0.93946,-3.574219 0,-1.434357 0.314,-2.468129 0.89454,-3.142578 a 0.30003001,0.30003001 0 0 0 0,-0.002 c 0.59582,-0.700969 1.30496,-1.03125 2.20312,-1.03125 z"
         id="path4035" />
    </g>
    <g
       id="path3982"
       style="font-weight:bold;font-size:29.1042px;font-family:'28 Days Later';-inkscape-font-specification:'28 Days Later Bold';fill:#ffffff;fill-rule:evenodd;stroke:#000000;stroke-width:0.6;stroke-linecap:square;stroke-linejoin:round;paint-order:markers fill stroke">
      <path
         style="color:#000000;-inkscape-font-specification:'Arial Bold';fill:#000000;fill-rule:nonzero;stroke:none;stroke-linecap:butt;stroke-linejoin:miter;-inkscape-stroke:none"
         d="m 116.89732,12.535512 -3.62381,-0.653707 q 0.61107,-2.1884998 2.10323,-3.2401165 1.49216,-1.0516166 4.43385,-1.0516166 2.67167,0 3.97909,0.6394966 1.30741,0.6252856 1.83322,1.605847 0.54002,0.9663505 0.54002,3.5669695 l -0.0426,4.66122 q 0,1.989545 0.18474,2.941684 0.19895,0.937929 0.72476,2.017967 h -3.95067 q -0.15632,-0.397909 -0.38369,-1.179516 -0.0995,-0.355276 -0.14211,-0.468964 -1.0232,0.994773 -2.1885,1.492159 -1.16531,0.497386 -2.48693,0.497386 -2.33061,0 -3.68066,-1.264782 -1.33584,-1.264782 -1.33584,-3.197483 0,-1.278993 0.61107,-2.273766 0.61108,-1.008983 1.70533,-1.534791 1.10846,-0.54002 3.18327,-0.937929 2.79957,-0.525808 3.87961,-0.980561 V 12.7771 q 0,-1.151094 -0.56844,-1.634269 -0.56844,-0.497386 -2.14586,-0.497386 -1.06583,0 -1.6627,0.426331 -0.59686,0.41212 -0.96635,1.463736 z m 5.34335,3.240116 q -0.76739,0.255799 -2.43008,0.611075 -1.6627,0.355276 -2.17429,0.696341 -0.78161,0.55423 -0.78161,1.406892 0,0.838451 0.62529,1.449526 0.62528,0.611074 1.59163,0.611074 1.08004,0 2.0606,-0.710552 0.72477,-0.540019 0.95214,-1.321626 0.15632,-0.511597 0.15632,-1.946912 z"
         id="path4039" />
      <path
         style="color:#000000;-inkscape-font-specification:'Arial Bold';fill:#000000;fill-rule:nonzero;stroke:none;stroke-linecap:butt;stroke-linejoin:miter;-inkscape-stroke:none"
         d="m 119.81055,7.2910156 c -1.99688,0 -3.53677,0.3509146 -4.60742,1.1054688 -1.05912,0.7464199 -1.79771,1.8963666 -2.21875,3.4042966 a 0.30003001,0.30003001 0 0 0 0.23632,0.376953 l 3.62305,0.652344 a 0.30003001,0.30003001 0 0 0 0.0527,0.0059 0.30003001,0.30003001 0 0 0 0.28321,-0.201172 c 0.23364,-0.664977 0.52997,-1.093005 0.85351,-1.316407 a 0.30003001,0.30003001 0 0 0 0.004,-0.002 c 0.32919,-0.23513 0.81968,-0.371093 1.49023,-0.371093 1.02008,0 1.67181,0.182796 1.94727,0.423828 a 0.30003001,0.30003001 0 0 0 0.004,0.002 c 0.28938,0.245977 0.46289,0.688237 0.46289,1.40625 v 0.167969 c -0.6966,0.273836 -1.86633,0.583871 -3.63477,0.916015 a 0.30003001,0.30003001 0 0 0 -0.002,0 c -1.39816,0.26814 -2.47867,0.583306 -3.25781,0.962891 -0.77615,0.373529 -1.39404,0.928471 -1.83008,1.648437 -0.43674,0.711667 -0.65625,1.529923 -0.65625,2.429688 0,1.357584 0.48373,2.520376 1.42968,3.416015 a 0.30003001,0.30003001 0 0 0 0.002,0 c 0.96289,0.902075 2.27676,1.345703 3.88476,1.345703 0.91872,0 1.79094,-0.173819 2.60547,-0.521484 0.67884,-0.289748 1.29715,-0.769384 1.90039,-1.294922 0.0102,0.03566 0.0122,0.0359 0.0234,0.07617 a 0.30003001,0.30003001 0 0 0 0.002,0.0039 c 0.15292,0.525666 0.28202,0.923659 0.39258,1.205078 a 0.30003001,0.30003001 0 0 0 0.2793,0.191407 h 3.94922 a 0.30003001,0.30003001 0 0 0 0.26953,-0.431641 c -0.34138,-0.701213 -0.57269,-1.350659 -0.69922,-1.945312 -0.11564,-0.596 -0.1796,-1.565139 -0.17969,-2.88086 v -0.002 l 0.043,-4.660156 a 0.30003001,0.30003001 0 0 0 0,-0.002 c 0,-1.753608 -0.16268,-2.966564 -0.57812,-3.7109377 -0.38671,-0.7197432 -1.05278,-1.294654 -1.96289,-1.7304688 -0.94407,-0.4617693 -2.30629,-0.6699219 -4.11133,-0.6699219 z m 0,0.5996094 c 1.75717,0 3.04849,0.218483 3.84765,0.609375 a 0.30003001,0.30003001 0 0 0 0.002,0 c 0.83066,0.3972752 1.38506,0.8907128 1.69922,1.4765625 a 0.30003001,0.30003001 0 0 0 0.002,0.00586 c 0.30411,0.5441935 0.50195,1.7069435 0.50195,3.4199225 l -0.043,4.658203 a 0.30003001,0.30003001 0 0 0 0,0.0039 c 0,1.335648 0.0588,2.324932 0.18946,2.998047 a 0.30003001,0.30003001 0 0 0 0.002,0.0059 c 0.11018,0.519432 0.3447,1.083343 0.59375,1.654297 h -3.31055 c -0.0892,-0.245085 -0.18582,-0.530471 -0.31054,-0.958984 v -0.0039 c -0.0663,-0.236593 -0.11315,-0.39086 -0.1504,-0.490235 a 0.30003001,0.30003001 0 0 0 -0.49023,-0.109375 c -0.65924,0.640923 -1.35609,1.115953 -2.0957,1.431641 -0.73921,0.315516 -1.52765,0.472656 -2.3711,0.472656 -1.49874,0 -2.63559,-0.400047 -3.47265,-1.183594 -0.83516,-0.790735 -1.24219,-1.759167 -1.24219,-2.978515 0,-0.804884 0.18904,-1.502866 0.56641,-2.117188 a 0.30003001,0.30003001 0 0 0 0,-0.002 c 0.37824,-0.624536 0.89844,-1.092386 1.58007,-1.419922 0.6984,-0.340244 1.74034,-0.6498 3.10743,-0.912109 1.87492,-0.352143 3.17405,-0.676904 3.9414,-1 a 0.30003001,0.30003001 0 0 0 0.1836,-0.275391 v -0.398437 c 0,-0.81499 -0.20552,-1.460902 -0.67188,-1.859375 -0.48245,-0.42215 -1.25865,-0.572266 -2.3418,-0.572266 -0.7498,0 -1.36945,0.149809 -1.83593,0.482422 -0.40384,0.280017 -0.67997,0.794275 -0.92383,1.378906 l -3.07031,-0.554687 c 0.40213,-1.227737 1.00044,-2.1657918 1.85156,-2.7656256 0.91889,-0.6476 2.33634,-0.9960938 4.26172,-0.9960938 z m 2.33593,7.599609 c -0.48945,0.163154 -1.29514,0.367769 -2.39843,0.603516 -1.1215,0.239636 -1.85148,0.456319 -2.27735,0.740234 a 0.30003001,0.30003001 0 0 0 -0.008,0.0039 c -0.58029,0.411475 -0.9082,0.992236 -0.9082,1.652343 0,0.633544 0.24893,1.208743 0.71484,1.664063 0.4721,0.461377 1.09527,0.695312 1.80274,0.695312 0.78581,0 1.54024,-0.263168 2.23632,-0.767578 a 0.30003001,0.30003001 0 0 0 0.002,-0.002 c 0.52548,-0.391534 0.88975,-0.891028 1.06054,-1.474609 v -0.002 c 0.12685,-0.416098 0.16993,-1.064407 0.16993,-2.03125 V 15.77529 a 0.30003001,0.30003001 0 0 0 -0.39454,-0.285157 z m -0.20507,0.669922 v 0.41211 c 0,0.945984 -0.0632,1.593293 -0.14453,1.859375 a 0.30003001,0.30003001 0 0 0 0,0.002 c -0.13288,0.456773 -0.40413,0.838455 -0.84375,1.166015 -0.61004,0.441024 -1.22805,0.650391 -1.88086,0.650391 -0.581,0 -1.02121,-0.172003 -1.38282,-0.525391 -0.3678,-0.359445 -0.53515,-0.749985 -0.53515,-1.234375 0,-0.475823 0.19443,-0.83319 0.65429,-1.160156 0.25815,-0.170786 0.97214,-0.416991 2.06446,-0.650391 0.93518,-0.199826 1.5441,-0.36294 2.06836,-0.519531 z"
         id="path4041" />
    </g>
    <g
       id="path3984"
       style="font-weight:bold;font-size:29.1042px;font-family:'28 Days Later';-inkscape-font-specification:'28 Days Later Bold';fill:#ffffff;fill-rule:evenodd;stroke:#000000;stroke-width:0.6;stroke-linecap:square;stroke-linejoin:round;paint-order:markers fill stroke">
      <path
         style="color:#000000;-inkscape-font-specification:'Arial Bold';fill:#000000;fill-rule:nonzero;stroke:none;stroke-linecap:butt;stroke-linejoin:miter;-inkscape-stroke:none"
         d="m 137.02015,7.9311368 v 3.1832722 h -2.72852 v 6.082323 q 0,1.847434 0.0711,2.160077 0.0853,0.298432 0.35527,0.497386 0.28422,0.198955 0.68213,0.198955 0.55423,0 1.60585,-0.383698 l 0.34107,3.098006 q -1.39269,0.596863 -3.15485,0.596863 -1.08004,0 -1.94692,-0.355276 -0.86687,-0.369487 -1.27899,-0.937928 -0.39791,-0.582653 -0.55423,-1.563214 -0.1279,-0.696341 -0.1279,-2.813785 V 11.114409 H 128.4509 V 7.9311368 h 1.83322 V 4.9326083 l 4.00751,-2.3306098 v 5.3291383 z"
         id="path4045" />
      <path
         style="color:#000000;-inkscape-font-specification:'Arial Bold';fill:#000000;fill-rule:nonzero;stroke:none;stroke-linecap:butt;stroke-linejoin:miter;-inkscape-stroke:none"
         d="m 134.14062,2.3417969 -4.00781,2.3320312 a 0.30003001,0.30003001 0 0 0 -0.14844,0.2578125 v 2.6992188 h -1.5332 a 0.30003001,0.30003001 0 0 0 -0.30078,0.3007812 v 3.1835934 a 0.30003001,0.30003001 0 0 0 0.30078,0.298829 h 1.5332 v 6.279296 c 0,1.416706 0.0379,2.349608 0.13282,2.867188 6e-5,3.52e-4 -7e-5,0.0016 0,0.002 0.10926,0.679533 0.30374,1.241645 0.60156,1.677734 a 0.30003001,0.30003001 0 0 0 0.004,0.0078 c 0.31528,0.43488 0.79111,0.77575 1.40429,1.037109 a 0.30003001,0.30003001 0 0 0 0.004,0.002 c 0.61837,0.25343 1.30763,0.376954 2.06055,0.376953 1.20864,0 2.30287,-0.205139 3.27343,-0.621093 a 0.30003001,0.30003001 0 0 0 0.17969,-0.308594 L 137.30487,19.6368 a 0.30003001,0.30003001 0 0 0 -0.40235,-0.25 c -0.68513,0.249981 -1.20169,0.367187 -1.50195,0.367187 -0.21353,0 -0.37098,-0.04915 -0.50586,-0.142578 -0.13104,-0.09722 -0.20142,-0.201949 -0.24023,-0.333984 -0.01,-0.04936 -0.0335,-0.280088 -0.0449,-0.626953 -0.0117,-0.354392 -0.0176,-0.839239 -0.0176,-1.453125 v -5.783203 h 2.42773 a 0.30003001,0.30003001 0 0 0 0.30078,-0.298829 V 7.9316406 A 0.30003001,0.30003001 0 0 0 137.01953,7.6308594 H 134.5918 V 2.6015625 a 0.30003001,0.30003001 0 0 0 -0.45118,-0.2597656 z m -0.14843,0.78125 v 4.8085937 a 0.30003001,0.30003001 0 0 0 0.29883,0.2988282 h 2.42968 v 2.5839842 h -2.42968 a 0.30003001,0.30003001 0 0 0 -0.29883,0.300781 v 6.082032 c 0,0.617735 0.006,1.107022 0.0176,1.472656 0.012,0.365633 0.0227,0.587396 0.0605,0.753906 a 0.30003001,0.30003001 0 0 0 0.004,0.01563 c 0.075,0.262427 0.23934,0.490067 0.46484,0.65625 a 0.30003001,0.30003001 0 0 0 0.008,0.0039 c 0.24337,0.170355 0.53825,0.253907 0.85352,0.253907 0.34496,0 0.83332,-0.152165 1.34375,-0.316407 l 0.27539,2.494141 c -0.84118,0.329733 -1.76571,0.533203 -2.82812,0.533203 -0.68572,0 -1.29148,-0.112658 -1.82813,-0.332031 -0.54056,-0.230405 -0.91599,-0.512479 -1.15039,-0.833985 -0.23041,-0.33865 -0.40475,-0.81552 -0.50391,-1.4375 a 0.30003001,0.30003001 0 0 0 -0.002,-0.0078 c -0.0755,-0.411087 -0.12305,-1.354178 -0.12305,-2.759766 V 11.115234 A 0.30003001,0.30003001 0 0 0 130.2832,10.814453 H 128.75 V 8.2304688 h 1.5332 a 0.30003001,0.30003001 0 0 0 0.30078,-0.2988282 V 5.1054687 Z"
         id="path4047" />
    </g>
    <g
       id="path3986"
       style="font-weight:bold;font-size:29.1042px;font-family:'28 Days Later';-inkscape-font-specification:'28 Days Later Bold';fill:#ffffff;fill-rule:evenodd;stroke:#000000;stroke-width:0.6;stroke-linecap:square;stroke-linejoin:round;paint-order:markers fill stroke">
      <path
         style="color:#000000;-inkscape-font-specification:'Arial Bold';fill:#000000;fill-rule:nonzero;stroke:none;stroke-linecap:butt;stroke-linejoin:miter;-inkscape-stroke:none"
         d="m 143.77039,2.1898785 v 7.659748 q 1.9327,-2.2595546 4.61859,-2.2595546 1.37847,0 2.48693,0.5115973 1.10846,0.5115973 1.66269,1.3074153 0.56844,0.7958175 0.7674,1.7621685 0.21316,0.96635 0.21316,2.998528 v 8.853475 h -3.9933 v -7.972391 q 0,-2.373242 -0.22738,-3.012739 -0.22737,-0.639497 -0.81002,-1.008984 -0.56845,-0.383697 -1.43532,-0.383697 -0.99477,0 -1.77638,0.483175 -0.78161,0.483175 -1.15109,1.463736 -0.35528,0.966351 -0.35528,2.87063 v 7.56027 h -3.9933 V 2.1898785 Z"
         id="path4051" />
      <path
         style="color:#000000;-inkscape-font-specification:'Arial Bold';fill:#000000;fill-rule:nonzero;stroke:none;stroke-linecap:butt;stroke-linejoin:miter;-inkscape-stroke:none"
         d="m 139.77734,1.890625 a 0.30003001,0.30003001 0 0 0 -0.30078,0.2988281 V 23.023437 a 0.30003001,0.30003001 0 0 0 0.30078,0.300782 h 3.99219 a 0.30003001,0.30003001 0 0 0 0.30078,-0.300782 v -7.560546 c 0,-1.250862 0.12306,-2.183247 0.33789,-2.767578 0.22744,-0.602026 0.5643,-1.025511 1.02539,-1.310547 0.47266,-0.292185 1.00454,-0.439454 1.61914,-0.439453 0.53365,-1e-6 0.94723,0.115796 1.26758,0.332031 a 0.30003001,0.30003001 0 0 0 0.008,0.0059 c 0.33724,0.213855 0.55691,0.488166 0.6875,0.855469 0.11235,0.315957 0.21094,1.33953 0.21094,2.912109 v 7.972656 a 0.30003001,0.30003001 0 0 0 0.29883,0.300782 h 3.99414 a 0.30003001,0.30003001 0 0 0 0.29883,-0.300782 v -8.853515 c 0,-1.363541 -0.0675,-2.371218 -0.21875,-3.058594 -0.14044,-0.682117 -0.41314,-1.3101641 -0.81445,-1.8730467 -0.40586,-0.5827732 -1.00777,-1.0503082 -1.78321,-1.4082032 -0.78193,-0.3608931 -1.65719,-0.5390625 -2.61328,-0.5390625 -1.65187,0 -3.08057,0.7283866 -4.31836,1.9433594 V 2.1894531 A 0.30003001,0.30003001 0 0 0 143.76953,1.890625 Z m 0.29883,0.5996094 h 3.39453 v 7.359375 a 0.30003001,0.30003001 0 0 0 0.52735,0.1953126 c 1.24384,-1.4542023 2.68416,-2.154297 4.39062,-2.154297 0.88187,0 1.66532,0.1631391 2.36133,0.484375 0.70251,0.3242341 1.20986,0.7267617 1.54297,1.2050781 a 0.30003001,0.30003001 0 0 0 0.002,0.00391 c 0.3552,0.4972809 0.59226,1.0435449 0.7168,1.6484379 a 0.30003001,0.30003001 0 0 0 0.002,0.0039 c 0.13258,0.601036 0.20508,1.589299 0.20508,2.933594 v 8.552734 h -3.39258 v -7.671875 c 0,-1.59174 -0.0533,-2.576577 -0.24414,-3.113281 -0.17193,-0.483571 -0.49255,-0.879564 -0.92969,-1.158203 -0.43699,-0.293799 -0.97903,-0.433594 -1.59961,-0.433594 -0.71175,0 -1.3641,0.175296 -1.93359,0.527344 -0.58029,0.358726 -1.00824,0.909472 -1.27344,1.613281 a 0.30003001,0.30003001 0 0 0 -0.002,0.002 c -0.25888,0.704136 -0.37305,1.686435 -0.37305,2.97461 v 7.259765 h -3.39453 z"
         id="path4053" />
    </g>
  </g>
</svg>
